# xmcd
#
# Track frame offsets: 
#        150
#        12106
#        27154
#        49407
#        63790
#        77661
#        92924
#        110608
#        130910
#        143597
#        156100
#        166856
#        182789
#        198874
#        212595
#        225657
#        235271
#
# Disc length: 3413 seconds
#
# Revision: 0
# Processed by: cddbd v1.5.2PL0 Copyright (c) Steve Scherf et al.
# Submitted via: ExactAudioCopy v1.0b3
#
DISCID=d80d5311
DTITLE=Сергей Кривко - Я иду по земле
DYEAR=2012
DGENRE=Christian
TTITLE0=Что день завтрашний
TTITLE1=Как жалко нашей юности
TTITLE2=Где-то там за туманами
TTITLE3=Я молюсь за тебя
TTITLE4=Среди гор и пустынь
TTITLE5=Тот кто спасен
TTITLE6=Средь тьмы неверья
TTITLE7=Тридцать лет на земле
TTITLE8=Жизнь прекрасна порой
TTITLE9=Любить, любить
TTITLE10=Там я получу ответ на вопрос
TTITLE11=Что будеш делать ты
TTITLE12=О, мой Господь, приходит час
TTITLE13=Что с тобою, душа дорогая
TTITLE14=И это пройдет
TTITLE15=Я иду по земле
TTITLE16=Нам многое сегодня предлагают
EXTD=
EXTT0=
EXTT1=
EXTT2=
EXTT3=
EXTT4=
EXTT5=
EXTT6=
EXTT7=
EXTT8=
EXTT9=
EXTT10=
EXTT11=
EXTT12=
EXTT13=
EXTT14=
EXTT15=
EXTT16=
PLAYORDER=
